<?xml version="1.0" encoding="iso-8859-1"?>
<!-- Generator: Adobe Illustrator 16.0.0, SVG Export Plug-In . SVG Version: 6.00 Build 0)  -->
<svg xmlns="http://www.w3.org/2000/svg" xmlns:xlink="http://www.w3.org/1999/xlink" version="1.1" id="Capa_1" x="0px" y="0px" width="512px" height="512px" viewBox="0 0 256 256" style="enable-background:new 0 0 125.656 125.655;" xml:space="preserve" fill="#468cc8">
<g>
	<path d="M128 42.1c-47.5 0-85.9 38.5-85.9 85.9s38.5 85.9 85.9 85.9 85.9-38.5 85.9-85.9-38.4-85.9-85.9-85.9zm0 165.6c-43.9 0-79.7-35.7-79.7-79.7 0-43.9 35.7-79.7 79.7-79.7 43.9 0 79.7 35.7 79.7 79.7 0 43.9-35.8 79.7-79.7 79.7z"/>
	<path d="M135.9 88c-1.4-.9-3.4-.5-4.3.9l-24.7 37.6c-.7 1-.7 2.4 0 3.4l24.6 37.3c.6.9 1.6 1.4 2.6 1.4.6 0 1.2-.2 1.7-.5 1.4-1 1.8-2.9.9-4.3l-23.5-35.6 23.6-35.9c1-1.4.6-3.3-.9-4.3z"/>
</g>
</svg>
