<?xml version="1.0" encoding="iso-8859-1"?>
<svg xmlns="http://www.w3.org/2000/svg" xmlns:xlink="http://www.w3.org/1999/xlink" version="1.1" viewBox="0 0 30 30" enable-background="new 0 0 30 30" width="512px" height="512px">
  <g>
    <g>
      <path fill="#5599ec" d="m15,4c-0.553,0-1,0.447-1,1v9h-5c-0.553,0-1,0.447-1,1 0,0.553 0.447,1 1,1h6c0.553,0 1-0.447 1-1v-10c0-0.553-0.447-1-1-1zm0-4c-8.284,0-15,6.716-15,15s6.716,15 15,15 15-6.716 15-15-6.716-15-15-15zm0,28c-7.18,0-13-5.82-13-13s5.82-13 13-13 13,5.82 13,13-5.82,13-13,13z"/>
    </g>
  </g>
</svg>
