<?xml version="1.0" encoding="iso-8859-1"?>
<svg xmlns="http://www.w3.org/2000/svg" xmlns:xlink="http://www.w3.org/1999/xlink" version="1.1" viewBox="38 38 180 180" enable-background="new 0 0 30 30" width="512px" height="512px" fill="#468cc8" stroke="#468cc8" stroke-width="3px">
  <g>
    <g>
      <path d="M128 48.003c-44.111 0-80 35.886-80 79.997s35.889 79.997 80 79.997 80-35.886 80-79.997-35.889-79.997-80-79.997zm0 154.375c-41.014 0-74.381-33.364-74.381-74.378S86.986 53.622 128 53.622 202.381 86.986 202.381 128 169.014 202.378 128 202.378z"/>
      <path d="M167.318 87.327l-35.751 35.924c-1.112-.54-2.343-.87-3.663-.87-1.325 0-2.563.332-3.68.878l-22.96-22.964a2.809 2.809 0 1 0-3.973 3.973l22.991 22.994a8.347 8.347 0 0 0-.806 3.547 8.429 8.429 0 0 0 16.856 0 8.388 8.388 0 0 0-.815-3.563l35.785-35.958a2.808 2.808 0 1 0-3.984-3.961z"/>
    </g>
  </g>
</svg>
