<?xml version="1.0" standalone="no"?>
<!DOCTYPE svg PUBLIC "-//W3C//DTD SVG 20010904//EN"
 "http://www.w3.org/TR/2001/REC-SVG-20010904/DTD/svg10.dtd">
<svg version="1.0" xmlns="http://www.w3.org/2000/svg"
 width="125.000000pt" height="130.000000pt" viewBox="18 18 220 220"
 preserveAspectRatio="xMidYMid meet">

<g fill="#900" stroke="none">
    <path d="M136.84 128l37.63-37.63a6.253 6.253 0 0 0 0-8.84 6.253 6.253 0 0 0-8.84 0L128 119.16 90.37 81.53a6.253 6.253 0 0 0-8.84 0 6.253 6.253 0 0 0 0 8.84L119.16 128l-37.63 37.63a6.253 6.253 0 0 0 0 8.84c1.22 1.22 2.82 1.83 4.42 1.83s3.2-.61 4.42-1.83L128 136.84l37.63 37.63a6.231 6.231 0 0 0 4.42 1.83c1.6 0 3.2-.61 4.42-1.83a6.253 6.253 0 0 0 0-8.84L136.84 128z"/>
    <path d="M162.24 45.33l48.42 48.42v68.48l-48.42 48.42H93.76l-48.42-48.42V93.76l48.42-48.42h68.48m5.78-13.95H87.98l-56.6 56.6v80.04l56.6 56.6h80.04l56.6-56.6V87.98l-56.6-56.59z"/>
</g>
</svg>
