<?xml version="1.0" encoding="iso-8859-1"?>
<!-- Generator: Adobe Illustrator 19.0.0, SVG Export Plug-In . SVG Version: 6.00 Build 0)  -->
<svg xmlns="http://www.w3.org/2000/svg" xmlns:xlink="http://www.w3.org/1999/xlink" version="1.1" id="Capa_1" x="0px" y="0px" viewBox="25 25 200 200" style="enable-background:new 0 0 60 60;" xml:space="preserve" width="512px" height="512px">
<g>
	<path d="M152.863 41.726H83.118c-8.63 0-15.625 6.995-15.625 15.625v140.627c0 8.63 6.994 15.625 15.625 15.625h89.764c8.63 0 15.625-6.995 15.625-15.625V77.368l-35.644-35.642zm2.337 10.67l22.895 22.893h-13.52c-5.17 0-9.375-4.205-9.375-9.375V52.397zm27.057 145.582c0 5.17-4.205 9.375-9.375 9.375H83.118c-5.17 0-9.375-4.206-9.375-9.375V57.35c0-5.17 4.205-9.375 9.375-9.375h65.832v17.938c0 8.63 6.995 15.625 15.625 15.625h17.682v116.439z" fill="#2f4986"/>
</g>
</svg>
