<?xml version="1.0" encoding="iso-8859-1"?>
<!-- Generator: Adobe Illustrator 19.0.0, SVG Export Plug-In . SVG Version: 6.00 Build 0)  -->
<svg xmlns="http://www.w3.org/2000/svg" xmlns:xlink="http://www.w3.org/1999/xlink" version="1.1" id="Capa_1" x="0px" y="0px" viewBox="8 8 240 240" style="enable-background:new 0 0 60 60;" xml:space="preserve" width="512px" height="512px" fill="#666">
    <path d="M146.76 110.47l-4.42-4.42-5.24 5.24-32.57 32.58c-1.52 1.52-2.83 5.24-3.9 9.58l17.56 17.56c4.34-1.08 8.06-2.38 9.58-3.9l37.82-37.81-4.42-4.42-14.41-14.41zm-23.41 52.22c-1.02 1.02-15.39-13.42-14.41-14.41l32.57-32.58 14.41 14.41-32.57 32.58zM94.91 176.74s7.97-1.99 14.47-3.75l-10.72-10.72c-1.78 6.61-3.75 14.47-3.75 14.47z"/>
    <path d="M198.2 63.3H87.4v3c0-8.6-7-15.6-15.6-15.6h-14c-8.6 0-15.6 7-15.6 15.6v123.3c0 8.6 7 15.6 15.6 15.6h140.5c8.6 0 15.6-7 15.6-15.6V79c0-8.7-7-15.7-15.7-15.7zm9.4 126.3c0 5.2-4.2 9.4-9.4 9.4H57.8c-5.2 0-9.4-4.2-9.4-9.4V89h159.2v100.6zm0-106.8H48.4V66.4c0-5.2 4.2-9.4 9.4-9.4h14c5.2 0 9.4 4.2 9.4 9.4v3.1l117.1.1c5.2 0 9.4 4.2 9.4 9.4v3.8z"/>
</svg>