<?xml version="1.0" encoding="iso-8859-1"?>
<!-- Generator: Adobe Illustrator 19.1.0, SVG Export Plug-In . SVG Version: 6.00 Build 0)  -->
<svg xmlns="http://www.w3.org/2000/svg" xmlns:xlink="http://www.w3.org/1999/xlink" version="1.1" id="Capa_1" x="0px" y="0px" viewBox="0 0 256 256" style="enable-background:new 0 0 485 485;" xml:space="preserve" width="512px" height="512px" fill="#468cc8">
<g>
	<g>
		<path d="M99.98 96.71H33.27V80.3c0-5.17 4.21-9.38 9.38-9.38h14.04c5.17 0 9.38 4.21 9.38 9.38v3.12l33.92.02v-6.19H72.31v3.05c0-8.63-6.99-15.62-15.62-15.62H42.64c-8.63 0-15.62 6.99-15.62 15.62v123.25c0 8.63 6.99 15.62 15.62 15.62h140.47c8.63 0 15.63-6.99 15.63-15.62V96.71H99.98zm92.51 106.84c0 5.17-4.21 9.38-9.38 9.38H42.64c-5.17 0-9.38-4.21-9.38-9.38V102.96h159.22v100.59z"/>
		<path d="M193.34 36.83H123.6c-8.63 0-15.62 6.99-15.62 15.62v44.27h6.25V52.45c0-5.17 4.21-9.38 9.38-9.38h65.83v17.94c0 8.63 6.99 15.62 15.62 15.62h17.68v116.44c0 5.17-4.21 9.38-9.38 9.38h-16.62v6.25h16.62c8.63 0 15.62-6.99 15.62-15.63V72.47l-35.64-35.64zm11.71 33.56c-5.17 0-9.38-4.21-9.38-9.38V47.5l22.89 22.89h-13.51z"/>
	</g>
</g>
</svg>
