<?xml version="1.0" encoding="iso-8859-1"?>
<!-- Generator: Adobe Illustrator 19.0.0, SVG Export Plug-In . SVG Version: 6.00 Build 0)  -->
<svg xmlns="http://www.w3.org/2000/svg" xmlns:xlink="http://www.w3.org/1999/xlink" version="1.1" id="Capa_1" x="0px" y="0px" viewBox="8 8 240 240" style="enable-background:new 0 0 60 60;" xml:space="preserve" width="512px" height="512px" fill="#666">
<path d="M203 60.7H92.2v3c0-8.6-7-15.6-15.6-15.6h-14c-8.6 0-15.6 7-15.6 15.6V117.5c-11.3.8-20.1 6.4-20.1 23.6 0 12.8 4.9 22.8 12.1 27.8-.8 1.5-1.9 2.8-3.5 3.5-5 2.3-19.8 6.1-19.8 6.1s-5 2.9-6.7 8.5c-1.6 5.2-4.8 9.7-5.6 10.8 6 5.9 26.4 8.9 46.7 8.9h2.3c-2.3 4.8-4.9 8.6-5.8 9.8 8.7 8.5 38.1 12.8 67.4 12.8 29.3 0 58.5-4.2 67.1-12.7-1.1-1.4-5.2-7.1-7.6-13.9H203c8.6 0 15.6-7 15.6-15.6V76.3c.1-8.6-6.9-15.6-15.6-15.6zM50.1 200.5c-17.6 0-31.1-2.2-38-4.7 1.1-2 2.1-4.4 2.9-6.9.7-2.2 2.4-3.8 3.3-4.5 3.7-1 15.1-4 19.7-6.1 2.6-1.2 4.8-3.2 6.4-6.1l2.8-4.9-4.6-3.2c-5.9-4.1-9.4-12.6-9.4-22.7 0-12.6 4.7-17.5 16.9-17.5 12.1 0 16.9 4.9 16.9 17.5 0 10.2-3.5 18.7-9.4 22.8l-4.7 3.3 2.9 5c1.6 2.8 3.7 4.8 6.3 6 4.4 2 14.5 4.8 18.9 5.9-8 2.4-16.4 4.6-16.4 4.6s-6.9 4.1-9.4 11.8c-1.9-.4-3.5-.3-5.1-.3zm63.8 22.5c-28.3 0-49.3-3.8-58.8-8.3 1.9-3.2 4.1-7.5 5.5-12.1 1.3-4.4 4.8-7.2 6.2-8.2 4.7-1.2 21.8-5.7 28.6-8.8 3.2-1.5 5.9-4 7.9-7.6l2.8-4.9-4.6-3.2c-9.2-6.4-14.7-19.5-14.7-35 0-19.6 8.1-27.9 27.1-27.9s27.1 8.4 27.1 27.9c0 15.5-5.5 28.7-14.8 35.1l-4.7 3.3 2.8 5c2 3.5 4.6 6 7.8 7.5 6.8 3.1 23.8 7.6 28.6 8.8 1.4 1 4.9 3.9 6.2 8.2 1.4 4.7 3.6 9 5.5 12.2-9.5 4.2-30.3 8-58.5 8zm98.5-36c0 5.2-4.2 9.4-9.4 9.4h-32.2c-3.1-5.1-7.6-7.7-7.6-7.7s-21.4-5.5-28.6-8.7c-2.2-1-3.8-2.8-5-4.9 10.4-7.2 17.5-21.7 17.5-40.2 0-26.9-14.9-34.2-33.3-34.2s-33.4 7.3-33.4 34.2c0 18.5 7 32.9 17.4 40.1-1.2 2.1-2.8 4-5 5-1.3.6-3 1.2-4.9 1.9-1.8-2.1-3.7-3.2-3.7-3.2s-14.8-3.8-19.8-6.1c-1.5-.7-2.6-2-3.5-3.4 7.2-5 12.1-15 12.1-27.9 0-17.1-8.7-22.7-19.9-23.6V86.4h159.2V187zm0-106.9H53.2V63.7c0-5.2 4.2-9.4 9.4-9.4h14c5.2 0 9.4 4.2 9.4 9.4v3.1l117 .1c5.2 0 9.4 4.2 9.4 9.4v3.8z"/>
</svg>