<?xml version="1.0" encoding="iso-8859-1"?>
<!-- Generator: Adobe Illustrator 19.0.0, SVG Export Plug-In . SVG Version: 6.00 Build 0)  -->
<svg xmlns="http://www.w3.org/2000/svg" xmlns:xlink="http://www.w3.org/1999/xlink" version="1.1" id="Capa_1" x="0px" y="0px" viewBox="8 8 240 240" style="enable-background:new 0 0 60 60;" xml:space="preserve" width="512px" height="512px" fill="#666">
    <path d="M198.23 63.33H87.43v3.05c0-8.63-6.99-15.62-15.62-15.62H57.77c-8.63 0-15.62 6.99-15.62 15.62v123.25c0 8.63 6.99 15.62 15.62 15.62h140.47c8.63 0 15.62-6.99 15.62-15.62V78.96c0-8.64-7-15.63-15.63-15.63zm9.38 126.29c0 5.17-4.21 9.38-9.38 9.38H57.77c-5.17 0-9.38-4.21-9.38-9.38V89.03h159.22v100.59zm0-106.84H48.39v-16.4c0-5.17 4.21-9.38 9.38-9.38h14.04c5.17 0 9.38 4.21 9.38 9.38v3.12l117.05.08c5.17 0 9.38 4.21 9.38 9.38v3.82z"/>
    <g><path d="M246.17 69.73c0-1.73-1.4-3.12-3.12-3.12h-17.19c-1.73 0-3.12 1.4-3.12 3.12s1.4 3.12 3.12 3.12h17.19c1.72.01 3.12-1.39 3.12-3.12zM234.46 45.87a3.126 3.126 0 0 0-4.42-4.42L217.89 53.6c-.61.61-.92 1.41-.92 2.21s.31 1.6.92 2.21a3.126 3.126 0 0 0 4.42 0l12.15-12.15zM206.17 53.17c1.73 0 3.12-1.4 3.12-3.12V32.86c0-1.73-1.4-3.12-3.12-3.12s-3.12 1.4-3.12 3.12v17.19c0 1.72 1.4 3.12 3.12 3.12z"/></g>
    <g><path d="M11.05 198.85c0 1.73 1.4 3.12 3.12 3.12h17.19c1.73 0 3.12-1.4 3.12-3.12s-1.4-3.12-3.12-3.12H14.17a3.111 3.111 0 0 0-3.12 3.12zM22.76 222.72a3.126 3.126 0 0 0 4.42 4.42l12.15-12.15c.61-.61.92-1.41.92-2.21s-.31-1.6-.92-2.21a3.126 3.126 0 0 0-4.42 0l-12.15 12.15zM51.05 215.41c-1.73 0-3.12 1.4-3.12 3.12v17.19c0 1.73 1.4 3.12 3.12 3.12s3.12-1.4 3.12-3.12v-17.19c0-1.72-1.4-3.12-3.12-3.12z"/></g>
</svg>
