<?xml version="1.0" standalone="no"?>
<!DOCTYPE svg PUBLIC "-//W3C//DTD SVG 20010904//EN"
 "http://www.w3.org/TR/2001/REC-SVG-20010904/DTD/svg10.dtd">
<svg version="1.0" xmlns="http://www.w3.org/2000/svg"
 width="982.000000pt" height="998.000000pt" viewBox="0 0 982.000000 998.000000"
 preserveAspectRatio="xMidYMid meet">
<metadata>
Created by potrace 1.15, written by Peter Selinger 2001-2017
</metadata>
<g transform="translate(0.000000,998.000000) scale(0.100000,-0.100000)"
fill="#5599EC" stroke="none">
<path d="M4785 9440 c-285 -19 -683 -96 -980 -187 -449 -138 -990 -418 -1330
-687 -252 -199 -446 -378 -582 -533 -299 -342 -465 -581 -643 -925 -85 -166
-242 -522 -255 -584 -4 -16 -29 -99 -55 -184 -68 -215 -92 -329 -140 -656 -69
-473 -59 -908 34 -1449 24 -135 56 -288 65 -305 4 -8 29 -87 55 -175 53 -180
91 -282 147 -402 22 -45 39 -87 39 -93 0 -26 191 -387 285 -540 189 -303 499
-674 748 -893 348 -306 580 -467 927 -645 471 -242 876 -370 1430 -454 200
-30 213 -31 565 -31 350 0 366 1 565 31 552 82 931 201 1410 443 346 174 588
342 942 651 247 217 556 584 738 877 351 564 549 1109 652 1801 30 199 31 216
31 565 0 338 -1 371 -26 550 -79 557 -211 983 -453 1467 -223 446 -585 922
-937 1231 -348 306 -580 467 -927 645 -473 243 -887 374 -1430 453 -178 26
-241 30 -480 33 -151 3 -329 1 -395 -4z m540 -100 c461 -25 996 -149 1404
-324 483 -209 816 -423 1231 -789 224 -198 542 -579 707 -847 349 -567 552
-1136 637 -1790 109 -845 -55 -1742 -461 -2520 -95 -181 -240 -421 -312 -515
-218 -285 -401 -491 -577 -647 -328 -292 -565 -459 -894 -630 -467 -242 -869
-370 -1410 -450 -208 -30 -226 -31 -550 -31 -311 0 -348 2 -520 27 -554 80
-991 218 -1453 459 -328 171 -569 341 -897 630 -224 198 -542 579 -707 847
-277 449 -474 932 -572 1405 -132 633 -130 1200 5 1831 125 586 420 1226 770
1674 268 342 444 520 784 792 346 277 874 552 1325 692 490 151 989 214 1490
186z"/>
<path d="M6280 7376 c-390 -82 -669 -357 -746 -736 -14 -70 -16 -113 -10 -240
4 -85 9 -181 12 -212 4 -50 1 -67 -26 -122 -47 -99 -134 -166 -216 -166 -12 0
-82 29 -155 65 -204 98 -370 147 -591 175 -125 16 -392 8 -518 -15 -406 -74
-763 -274 -1018 -570 -195 -227 -317 -475 -382 -780 -30 -140 -38 -401 -16
-545 50 -339 179 -621 401 -880 98 -115 254 -247 381 -323 229 -137 481 -224
746 -257 125 -16 392 -8 518 15 406 74 763 274 1018 570 195 227 317 475 382
780 30 140 38 401 16 545 -31 207 -74 346 -168 533 -48 97 -49 99 -39 153 6
30 18 68 28 85 33 56 118 100 228 117 67 10 87 10 197 -8 107 -17 300 -8 403
20 179 47 379 173 485 304 200 247 263 571 168 866 -96 299 -341 526 -658 610
-108 28 -340 37 -440 16z m340 -90 c285 -51 524 -232 644 -487 57 -119 71
-186 71 -339 0 -152 -14 -216 -73 -335 -121 -245 -336 -410 -610 -467 -82 -17
-116 -19 -222 -12 -69 4 -181 7 -250 8 -118 1 -128 -1 -185 -28 -93 -45 -140
-81 -172 -133 -34 -55 -43 -85 -49 -163 -4 -52 0 -64 55 -172 144 -284 199
-603 156 -903 -64 -445 -278 -806 -639 -1077 -144 -108 -395 -230 -551 -268
-355 -86 -654 -78 -984 27 -121 38 -360 161 -461 236 -476 354 -725 927 -645
1482 77 541 389 975 875 1218 415 209 850 242 1295 101 44 -14 150 -58 235
-99 145 -69 159 -74 213 -71 48 3 67 10 110 40 73 51 78 56 119 106 82 103 96
159 73 295 -25 143 -25 343 -1 425 125 424 561 694 996 616z"/>
<path d="M6396 6839 c-59 -14 -153 -68 -191 -110 -72 -80 -113 -205 -100 -305
9 -71 65 -183 115 -228 81 -73 205 -114 306 -101 71 9 183 65 228 115 73 81
114 205 101 306 -9 71 -65 183 -115 228 -93 84 -229 122 -344 95z m216 -87
c60 -30 120 -90 150 -150 19 -38 23 -63 23 -132 0 -100 -21 -154 -86 -219 -65
-65 -119 -86 -219 -86 -69 0 -94 4 -132 23 -60 29 -121 90 -149 148 -27 57
-36 158 -19 219 25 91 113 182 203 211 62 20 172 13 229 -14z"/>
</g>
</svg>
