<?xml version="1.0" standalone="no"?>
<!DOCTYPE svg PUBLIC "-//W3C//DTD SVG 20010904//EN"
 "http://www.w3.org/TR/2001/REC-SVG-20010904/DTD/svg10.dtd">
<svg version="1.0" xmlns="http://www.w3.org/2000/svg"
 width="982.000000pt" height="998.000000pt" viewBox="0 0 982.000000 998.000000"
 preserveAspectRatio="xMidYMid meet">
<metadata>
Created by potrace 1.15, written by Peter Selinger 2001-2017
</metadata>
<g transform="translate(-300.000000,1300.000000) scale(0.1600000,-0.16000000)"
   fill="#468cc8" stroke="#468cc8" stroke-width="100">
<path d="M6280 7376 c-390 -82 -669 -357 -746 -736 -14 -70 -16 -113 -10 -240
4 -85 9 -181 12 -212 4 -50 1 -67 -26 -122 -47 -99 -134 -166 -216 -166 -12 0
-82 29 -155 65 -204 98 -370 147 -591 175 -125 16 -392 8 -518 -15 -406 -74
-763 -274 -1018 -570 -195 -227 -317 -475 -382 -780 -30 -140 -38 -401 -16
-545 50 -339 179 -621 401 -880 98 -115 254 -247 381 -323 229 -137 481 -224
746 -257 125 -16 392 -8 518 15 406 74 763 274 1018 570 195 227 317 475 382
780 30 140 38 401 16 545 -31 207 -74 346 -168 533 -48 97 -49 99 -39 153 6
30 18 68 28 85 33 56 118 100 228 117 67 10 87 10 197 -8 107 -17 300 -8 403
20 179 47 379 173 485 304 200 247 263 571 168 866 -96 299 -341 526 -658 610
-108 28 -340 37 -440 16z m340 -90 c285 -51 524 -232 644 -487 57 -119 71
-186 71 -339 0 -152 -14 -216 -73 -335 -121 -245 -336 -410 -610 -467 -82 -17
-116 -19 -222 -12 -69 4 -181 7 -250 8 -118 1 -128 -1 -185 -28 -93 -45 -140
-81 -172 -133 -34 -55 -43 -85 -49 -163 -4 -52 0 -64 55 -172 144 -284 199
-603 156 -903 -64 -445 -278 -806 -639 -1077 -144 -108 -395 -230 -551 -268
-355 -86 -654 -78 -984 27 -121 38 -360 161 -461 236 -476 354 -725 927 -645
1482 77 541 389 975 875 1218 415 209 850 242 1295 101 44 -14 150 -58 235
-99 145 -69 159 -74 213 -71 48 3 67 10 110 40 73 51 78 56 119 106 82 103 96
159 73 295 -25 143 -25 343 -1 425 125 424 561 694 996 616z"/>
<path d="M6396 6839 c-59 -14 -153 -68 -191 -110 -72 -80 -113 -205 -100 -305
9 -71 65 -183 115 -228 81 -73 205 -114 306 -101 71 9 183 65 228 115 73 81
114 205 101 306 -9 71 -65 183 -115 228 -93 84 -229 122 -344 95z m216 -87
c60 -30 120 -90 150 -150 19 -38 23 -63 23 -132 0 -100 -21 -154 -86 -219 -65
-65 -119 -86 -219 -86 -69 0 -94 4 -132 23 -60 29 -121 90 -149 148 -27 57
-36 158 -19 219 25 91 113 182 203 211 62 20 172 13 229 -14z"/>
</g>
</svg>
