<?xml version="1.0" encoding="iso-8859-1"?>
<!-- Generator: Adobe Illustrator 19.1.0, SVG Export Plug-In . SVG Version: 6.00 Build 0)  -->
<svg xmlns="http://www.w3.org/2000/svg" xmlns:xlink="http://www.w3.org/1999/xlink" version="1.1" id="Capa_1" x="0px" y="0px" viewBox="38 38 180 180" style="enable-background:new 0 0 485 485;" xml:space="preserve" width="512px" height="512px" fill="#468cc8">
<g>
	<g>
		<path d="M201.8 75.5H54.2c-3.5 0-6.2-2.8-6.2-6.2s2.8-6.2 6.2-6.2h147.5c3.5 0 6.2 2.8 6.2 6.2s-2.7 6.2-6.1 6.2zM201.8 134.2H54.2c-3.5 0-6.2-2.8-6.2-6.2s2.8-6.2 6.2-6.2h147.5c3.5 0 6.2 2.8 6.2 6.2s-2.7 6.2-6.1 6.2zM201.8 193H54.2c-3.5 0-6.2-2.8-6.2-6.2s2.8-6.2 6.2-6.2h147.5c3.5 0 6.2 2.8 6.2 6.2s-2.7 6.2-6.1 6.2z"/>
	</g>
</g>
</svg>
