<?xml version="1.0" encoding="iso-8859-1"?>
<!-- Generator: Adobe Illustrator 19.1.0, SVG Export Plug-In . SVG Version: 6.00 Build 0)  -->
<svg xmlns="http://www.w3.org/2000/svg" xmlns:xlink="http://www.w3.org/1999/xlink" version="1.1" id="Capa_1" x="0px" y="0px" viewBox="38 38 180 180" style="enable-background:new 0 0 485 485;" xml:space="preserve" width="512px" height="512px" fill="#468cc8">
<g>
	<g>
		<path d="M204.41 193.05h-105c-3.45 0-6.25-2.8-6.25-6.25s2.8-6.25 6.25-6.25h105c3.45 0 6.25 2.8 6.25 6.25s-2.8 6.25-6.25 6.25zM204.41 75.55h-105c-3.45 0-6.25-2.8-6.25-6.25s2.8-6.25 6.25-6.25h105c3.45 0 6.25 2.8 6.25 6.25s-2.8 6.25-6.25 6.25zM204.41 133.89h-105c-3.45 0-6.25-2.8-6.25-6.25s2.8-6.25 6.25-6.25h105c3.45 0 6.25 2.8 6.25 6.25s-2.8 6.25-6.25 6.25z"/>
		<circle cx="66.59" cy="69.2" r="15.5"/>
		<circle cx="66.59" cy="127.64" r="15.5"/>
		<circle cx="66.59" cy="186.8" r="15.5"/>
		<path d="M63.44 69.3h6.3v166.16h-6.3zM183.32 91.62H97.16a3.15 3.15 0 1 1 0-6.3h86.16a3.15 3.15 0 1 1 0 6.3zM183.32 150.53H97.16a3.15 3.15 0 1 1 0-6.3h86.16a3.15 3.15 0 1 1 0 6.3zM183.32 209.43H97.16a3.15 3.15 0 1 1 0-6.3h86.16a3.15 3.15 0 1 1 0 6.3z"/>
	</g>
</g>
</svg>
