<?xml version="1.0" encoding="iso-8859-1"?>
<!-- Generator: Adobe Illustrator 19.1.0, SVG Export Plug-In . SVG Version: 6.00 Build 0)  -->
<svg xmlns="http://www.w3.org/2000/svg" xmlns:xlink="http://www.w3.org/1999/xlink" version="1.1" id="Capa_1" x="0px" y="0px" viewBox="38 38 180 180" style="enable-background:new 0 0 485 485;" xml:space="preserve" width="512px" height="512px" fill="#555">
<g>
	<g>
		<path d="M109.9 210.5H49.8l47.5-61.2H49.9V143h60.2l-47.5 61.3h47.3zM114.1 109.2L79.8 45.5l-34 63.7c-.8 1.5-.2 3.4 1.3 4.2.5.2 1 .4 1.5.4 1.1 0 2.2-.6 2.8-1.7l9-16.8h39.3l9 16.8c.8 1.5 2.7 2.1 4.2 1.3 1.4-.8 2-2.7 1.2-4.2zM63.6 89.1l16.2-30.4 16.3 30.4H63.6z"/>
		<path d="M209.1 61.5l-42.4-22c-1-.6-2.2-.5-3.1 0l-40.6 22c-1.5.9-2 2.8-1.1 4.3.9 1.5 2.8 2 4.3 1.1L162 47.6v166.2c0 1.7 1.4 3.1 3.1 3.1 1.7 0 3.1-1.4 3.1-3.1V47.6l37.7 19.3c.5.3 1 .4 1.6.4 1.1 0 2.1-.6 2.7-1.5.9-1.5.4-3.4-1.1-4.3z"/>
	</g>
</g>
</svg>
