<?xml version="1.0" encoding="iso-8859-1"?>
<!-- Generator: Adobe Illustrator 19.1.0, SVG Export Plug-In . SVG Version: 6.00 Build 0)  -->
<svg xmlns="http://www.w3.org/2000/svg" xmlns:xlink="http://www.w3.org/1999/xlink" version="1.1" id="Capa_1" x="0px" y="0px" viewBox="38 38 180 180" style="enable-background:new 0 0 485 485;" xml:space="preserve" width="512px" height="512px" fill="#555">
<g>
	<g>
		<path d="M109.9 210.5H49.8l47.5-61.2H49.9V143h60.2l-47.5 61.3h47.3zM114.1 109.2L79.8 45.5l-34 63.7c-.8 1.5-.2 3.4 1.3 4.2.5.2 1 .4 1.5.4 1.1 0 2.2-.6 2.8-1.7l9-16.8h39.3l9 16.8c.8 1.5 2.7 2.1 4.2 1.3 1.4-.8 2-2.7 1.2-4.2zM63.6 89.1l16.2-30.4 16.3 30.4H63.6z"></path>
		<path d="M210.1 190c-.9-1.5-2.8-2-4.3-1.1l-37.4 19.3V42.4c0-1.7-1.4-3.1-3.1-3.1-1.7 0-3.1 1.4-3.1 3.1v165.8l-35.9-19.3c-1.5-.9-3.4-.4-4.3 1.1-.9 1.5-.4 3.4 1.1 4.3l40.6 22.1c.5.3 1 .4 1.6.4.6 0 1.1-.2 1.6-.4l42.1-22c1.5-1 2-2.9 1.1-4.4z"></path>
	</g>
</g>
</svg>
