<?xml version="1.0" encoding="UTF-8" standalone="no"?>
<!-- Generator: Adobe Illustrator 19.0.0, SVG Export Plug-In . SVG Version: 6.00 Build 0)  -->

<svg
   xmlns:svg="http://www.w3.org/2000/svg"
   xmlns="http://www.w3.org/2000/svg"
   x="0px"
   y="0px"
   viewBox="0 0 256 256"
   style="enable-background:new 0 0 512 512;"
   xml:space="preserve"
   width="512px"
   height="512px"
    fill="#468cc8">
<g>
<path class="st1" d="M180 141.5c-1.7 0-3 1.3-3 3v64.7c0 1.7 1.3 3 3 3s3-1.3 3-3v-64.7c0-1.7-1.3-3-3-3zM177 112.5c0 1.7 1.3 3 3 3s3-1.3 3-3V46.8c0-1.7-1.3-3-3-3H76c-1.7 0-3 1.3-3 3v162.4c0 1.7 1.3 3 3 3s3-1.3 3-3V49.8h98v62.7z"/><path class="st1" d="M209.2 104.9l-4.4 4.4 15.7 15.6h-91.7v6.6h91.1l-15.2 15.2 4.4 4.4 23.4-23.1z"></path>
</g>
</svg>