<?xml version="1.0" encoding="iso-8859-1"?>
	<!-- Generator: Adobe Illustrator 16.0.0, SVG Export Plug-In . SVG Version: 6.00 Build 0)  -->
<!DOCTYPE svg PUBLIC "-//W3C//DTD SVG 1.1//EN" "http://www.w3.org/Graphics/SVG/1.1/DTD/svg11.dtd">
<svg xmlns="http://www.w3.org/2000/svg" xmlns:xlink="http://www.w3.org/1999/xlink" version="1.1" id="Capa_1" x="0px" y="0px" width="512px" height="512px" viewBox="28 28 200 200" style="enable-background:new 0 0 612 612;" xml:space="preserve" fill="#468cc8" stroke="#468cc8" stroke-width="3px">
<g>
	<path d="M49.397 86.31c.035.134.123.235.175.36.083.208.162.406.286.592.11.165.245.296.384.433.144.147.282.287.455.403.175.116.364.192.561.275.132.052.237.147.379.183l44.195 11.456c1.673.446 3.375-.567 3.809-2.24a3.129 3.129 0 0 0-2.24-3.808L57.754 83.685c14.764-22.555 40.18-37.53 69.09-37.53 45.42 0 82.386 36.835 82.617 82.202h6.25c-.231-48.816-39.999-88.452-88.867-88.452-30.266 0-56.991 15.234-73.05 38.403L44.117 40.68a3.126 3.126 0 0 0-3.805-2.246 3.125 3.125 0 0 0-2.252 3.802L49.397 86.31zM217.94 213.764l-11.335-44.074c-.035-.134-.124-.235-.175-.36a3.13 3.13 0 0 0-.286-.592c-.111-.165-.245-.296-.384-.433a2.924 2.924 0 0 0-.455-.403c-.175-.12-.365-.192-.562-.275-.131-.052-.236-.147-.378-.183l-44.199-11.456c-1.672-.446-3.375.567-3.808 2.24a3.13 3.13 0 0 0 2.24 3.808l38.49 9.976c-14.554 23.593-40.544 39.402-70.244 39.402-44.616 0-81.06-35.547-82.559-79.804h-6.25c1.501 47.705 40.747 86.054 88.81 86.054 31.565 0 59.214-16.626 74.97-41.501l10.07 39.157a3.127 3.127 0 0 0 3.805 2.246 3.12 3.12 0 0 0 2.25-3.802z"/>
</g>
</svg>
