<?xml version="1.0" encoding="iso-8859-1"?>
<!-- Generator: Adobe Illustrator 16.0.0, SVG Export Plug-In . SVG Version: 6.00 Build 0)  -->
<!DOCTYPE svg PUBLIC "-//W3C//DTD SVG 1.1//EN" "http://www.w3.org/Graphics/SVG/1.1/DTD/svg11.dtd">
<svg xmlns="http://www.w3.org/2000/svg" xmlns:xlink="http://www.w3.org/1999/xlink" version="1.1" id="Capa_1" x="0px" y="0px" width="512px" height="512px" viewBox="28 28 200 200" style="enable-background:new 0 0 612 612;" xml:space="preserve" fill="white" stroke="white" stroke-width="2px">
<g>
	<path d="M128 39.56c-48.76 0-88.44 39.67-88.44 88.44s39.67 88.44 88.44 88.44 88.44-39.67 88.44-88.44S176.76 39.56 128 39.56zm0 164.89c-42.15 0-76.45-34.29-76.45-76.45S85.85 51.55 128 51.55s76.45 34.29 76.45 76.45-34.3 76.45-76.45 76.45z"/>
    <path d="M101.11 174.16c-.86 0-1.73-.22-2.5-.67a4.985 4.985 0 0 1-2.5-4.33V86.84c0-1.79.95-3.44 2.5-4.33 1.55-.89 3.45-.89 5 0l71.28 41.16c1.55.89 2.5 2.54 2.5 4.33s-.95 3.44-2.5 4.33l-71.28 41.16c-.78.44-1.64.67-2.5.67zm5-78.66v64.99l56.28-32.5-56.28-32.49z"/>
</g>
</svg>
