<?xml version="1.0" encoding="utf-8"?>
<svg xmlns="http://www.w3.org/2000/svg" xmlns:xlink="http://www.w3.org/1999/xlink" version="1.1" viewBox="20 40 180 180" enable-background="new 0 0 129 129" width="512px" height="512px" fill="#468cc8" stroke="#468cc8" stroke-width="3px">
  <g>
    <path d="M191.7 184c0-1.7-1.4-3.1-3.2-3.1H75.7V77.4l34.6 20.4c1.5.9 3.4.4 4.3-1.1.9-1.5.4-3.4-1.1-4.3L74.2 69.2c-1-.6-2.2-.5-3.1 0L31.8 92.4c-1.5.9-2 2.8-1.1 4.3.9 1.5 2.8 2 4.3 1.1l34.5-20.4v106.7l3.2 3.1h116c1.7 0 3-1.4 3-3.2z"/>
  </g>
</svg>
