<?xml version="1.0" encoding="UTF-8" standalone="no"?>
<!-- Generator: Adobe Illustrator 19.0.0, SVG Export Plug-In . SVG Version: 6.00 Build 0)  -->

<svg
   xmlns:svg="http://www.w3.org/2000/svg"
   xmlns="http://www.w3.org/2000/svg"
   x="0px"
   y="0px"
   viewBox="0 0 256 256"
   style="enable-background:new 0 0 486.463 486.463;"
   xml:space="preserve"
   width="512px"
   height="512px"
   fill="#cea102">
    <g>
        <path d="M214.3 52.1c.4 0 .8.2 1 .6s.2.8 0 1.2L129 203.3c-.2.4-.6.6-1 .6s-.8-.2-1-.6L40.7 53.8c-.2-.4-.2-.8 0-1.2s.6-.6 1-.6h172.6m0-6.2H41.7c-5.7 0-9.3 6.2-6.4 11.1l86.3 149.5c1.4 2.5 3.9 3.7 6.4 3.7s5-1.2 6.4-3.7L220.7 57c2.9-5-.7-11.2-6.4-11.2z"/><path d="M121.7 72.5h12.5v62.2h-12.5zM128 166c5.2 0 9.4-4.2 9.4-9.4s-4.2-9.4-9.4-9.4-9.4 4.2-9.4 9.4 4.2 9.4 9.4 9.4z"/>
    </g>
</svg>