<?xml version="1.0" encoding="UTF-8" standalone="no"?>
<!-- Generator: Adobe Illustrator 19.0.0, SVG Export Plug-In . SVG Version: 6.00 Build 0)  -->

<svg
   xmlns:dc="http://purl.org/dc/elements/1.1/"
   xmlns:cc="http://creativecommons.org/ns#"
   xmlns:rdf="http://www.w3.org/1999/02/22-rdf-syntax-ns#"
   xmlns:svg="http://www.w3.org/2000/svg"
   xmlns="http://www.w3.org/2000/svg"
   xmlns:sodipodi="http://sodipodi.sourceforge.net/DTD/sodipodi-0.dtd"
   xmlns:inkscape="http://www.inkscape.org/namespaces/inkscape"
   version="1.1"
   id="Capa_1"
   x="0px"
   y="0px"
   viewBox="0 0 486.463 486.463"
   style="enable-background:new 0 0 486.463 486.463;"
   xml:space="preserve"
   width="512px"
   height="512px"
   sodipodi:docname="warning.svg"
   inkscape:version="0.92.2 (5c3e80d, 2017-08-06)"><metadata
     id="metadata38"><rdf:RDF><cc:Work
         rdf:about=""><dc:format>image/svg+xml</dc:format><dc:type
           rdf:resource="http://purl.org/dc/dcmitype/StillImage" /></cc:Work></rdf:RDF></metadata><defs
     id="defs36" /><sodipodi:namedview
     pagecolor="#ffffff"
     bordercolor="#666666"
     borderopacity="1"
     objecttolerance="10"
     gridtolerance="10"
     guidetolerance="10"
     inkscape:pageopacity="0"
     inkscape:pageshadow="2"
     inkscape:window-width="1920"
     inkscape:window-height="1051"
     id="namedview34"
     showgrid="false"
     inkscape:snap-global="true"
     inkscape:snap-bbox="true"
     inkscape:zoom="1.6757812"
     inkscape:cx="256"
     inkscape:cy="270.97272"
     inkscape:window-x="-9"
     inkscape:window-y="-9"
     inkscape:window-maximized="1"
     inkscape:current-layer="Capa_1" /><g
     id="g31"
     transform="translate(1.1339464,-41.389044)"><path
       d="m 243.225,333.382 c -13.6,0 -25,11.4 -25,25 0,13.6 11.4,25 25,25 13.1,0 25,-11.4 24.4,-24.4 0.6,-14.3 -10.7,-25.6 -24.4,-25.6 z"
       id="path25"
       inkscape:connector-curvature="0"
       style="fill:#cea102" /><path
       d="m 237.025,157.882 c -11.9,3.4 -19.3,14.2 -19.3,27.3 0.6,7.9 1.1,15.9 1.7,23.8 1.7,30.1 3.4,59.6 5.1,89.7 0.6,10.2 8.5,17.6 18.7,17.6 10.2,0 18.2,-7.9 18.7,-18.2 0,-6.2 0,-11.9 0.6,-18.2 1.1,-19.3 2.3,-38.6 3.4,-57.9 0.6,-12.5 1.7,-25 2.3,-37.5 0,-4.5 -0.6,-8.5 -2.3,-12.5 -5.1,-11.2 -17,-16.9 -28.9,-14.1 z"
       id="path29"
       inkscape:connector-curvature="0"
       style="fill:#cea102" /></g><path
     d="m 11.83764,64.481501 c -15.7000098,27.1 -15.8000098,59.399999 -0.2,86.399999 l 156.6,271.20001 c 15.5,27.3 43.5,43.5 74.9,43.5 31.4,0 59.40001,-16.3 74.90001,-43.4 l 156.8,-271.50001 c 15.60001,-27.3 15.50001,-59.800009 -0.29999,-86.900009 -15.6,-26.8 -43.50001,-42.9 -74.70001,-42.9 H 87.03763 c -31.29999,0 -59.4,16.3 -75.19999,43.60001 z m 34,19.59999 c 8.69999,-15 24.09999,-23.89999 41.29999,-23.89999 h 312.80002 c 17,0 32.3,8.69999 40.80001,23.4 8.6,14.9 8.7,32.699989 0.1,47.699999 L 284.03765,402.68151 c -8.5,14.9 -23.7,23.7 -40.90001,23.7 -17.1,0 -32.4,-8.9 -40.9,-23.8 l -156.7,-271.40002 c -8.4,-14.59999 -8.3,-32.199999 0.3,-47.099999 z"
     id="path27"
     inkscape:connector-curvature="0"
     style="fill:#cea102;stroke-width:1" /></svg>