<?xml version="1.0" standalone="no"?>
<!DOCTYPE svg PUBLIC "-//W3C//DTD SVG 20010904//EN"
        "http://www.w3.org/TR/2001/REC-SVG-20010904/DTD/svg10.dtd">
<svg version="1.0" xmlns="http://www.w3.org/2000/svg"
     width="1314.000000pt" height="1314.000000pt" viewBox="0 0 1314.000000 1314.000000"
     preserveAspectRatio="xMidYMid meet">

    <g transform="translate(0.000000,1450.000000) scale(0.100000,-0.100000)"
       fill="#000" stroke="none">
        <path d="M4175 12853 c-764 -47 -1431 -324 -1992 -826 -481 -430 -834 -1035
-977 -1673 -87 -384 -100 -831 -35 -1226 53 -328 158 -642 316 -951 42 -81 74
-149 72 -151 -2 -2 -51 -27 -108 -56 -388 -194 -674 -467 -841 -805 -162 -326
-198 -656 -114 -1034 119 -530 495 -1042 1039 -1413 804 -548 1877 -760 3050
-602 61 8 130 17 155 20 34 4 90 -6 225 -40 789 -199 1528 -289 2385 -289 689
0 1314 57 2000 184 504 93 1118 255 1459 385 776 297 1391 795 1671 1353 327
654 147 1300 -484 1733 -85 58 -88 62 -82 92 61 294 44 557 -56 865 -100 309
-308 628 -549 839 -497 438 -1125 555 -1778 330 -64 -21 -123 -41 -131 -44
-11 -4 -21 13 -39 63 -33 96 -99 235 -165 347 -352 597 -983 980 -1766 1070
-74 9 -151 16 -170 16 -34 1 -36 2 -100 123 -475 893 -1367 1517 -2375 1661
-196 29 -438 40 -610 29z m954 -1653 c96 -19 216 -67 309 -122 75 -44 227
-196 282 -283 l45 -69 3 212 2 212 541 0 540 0 -3 -62 -3 -63 -90 -6 c-228
-17 -362 -117 -416 -309 -10 -35 -14 -410 -19 -1635 -6 -1564 -7 -1592 -27
-1685 -28 -127 -57 -210 -104 -299 -21 -41 -37 -76 -36 -78 2 -1 46 29 98 68
607 456 1041 1121 1204 1844 41 181 33 167 101 188 195 61 431 81 623 53 510
-76 888 -416 1011 -911 12 -49 24 -96 26 -102 2 -8 39 16 91 58 462 371 1011
423 1438 136 85 -57 216 -187 276 -274 95 -138 164 -316 190 -493 12 -83 8
-348 -5 -381 -6 -13 8 -25 58 -53 156 -87 323 -234 406 -356 53 -78 113 -205
136 -290 14 -50 18 -100 18 -220 -1 -134 -4 -168 -26 -250 -132 -486 -552
-941 -1169 -1264 -896 -469 -2230 -650 -3579 -486 -636 78 -1278 237 -1828
452 l-154 60 -146 -21 c-267 -38 -374 -45 -657 -45 -285 -1 -397 8 -620 45
-525 88 -969 295 -1264 590 -358 358 -419 778 -151 1049 152 154 390 245 715
272 l140 12 143 -52 c243 -89 518 -152 787 -182 139 -15 515 -13 663 4 123 13
169 26 97 26 -60 0 -241 29 -345 55 -449 113 -704 364 -744 733 l-7 62 320 0
321 0 4 -22 c22 -113 32 -148 63 -210 42 -84 139 -185 225 -236 197 -116 466
-129 711 -34 209 81 360 261 401 477 25 137 37 397 34 749 l-3 338 -50 -73
c-64 -94 -175 -211 -245 -259 -151 -102 -281 -139 -515 -147 -180 -6 -290 5
-423 43 -504 144 -832 623 -913 1333 -17 154 -7 523 20 676 68 400 200 690
414 912 233 241 525 352 884 337 62 -3 153 -14 202 -24z"/>
        <path d="M4831 10925 c-353 -99 -571 -556 -611 -1283 -24 -443 44 -809 199
-1077 62 -108 202 -249 291 -293 102 -50 178 -65 300 -59 174 8 297 59 418
171 161 151 264 387 317 726 22 141 31 552 16 746 -48 613 -217 937 -548 1051
-65 22 -99 27 -203 30 -89 2 -140 -1 -179 -12z"/>
    </g>
</svg>
