<?xml version="1.0" standalone="no"?>
<!DOCTYPE svg PUBLIC "-//W3C//DTD SVG 20010904//EN"
 "http://www.w3.org/TR/2001/REC-SVG-20010904/DTD/svg10.dtd">
<svg version="1.0" xmlns="http://www.w3.org/2000/svg"
 width="1314.000000pt" height="1314.000000pt" viewBox="0 0 1314.000000 1314.000000"
 preserveAspectRatio="xMidYMid meet">

<g transform="translate(0.000000,1314.000000) scale(0.100000,-0.100000)"
fill="#263965" stroke="none">
<path d="M4175 12853 c-764 -47 -1431 -324 -1992 -826 -481 -430 -834 -1035
-977 -1673 -87 -384 -100 -831 -35 -1226 53 -328 158 -642 316 -951 42 -81 74
-149 72 -151 -2 -2 -51 -27 -108 -56 -388 -194 -674 -467 -841 -805 -162 -326
-198 -656 -114 -1034 119 -530 495 -1042 1039 -1413 804 -548 1877 -760 3050
-602 61 8 130 17 155 20 34 4 90 -6 225 -40 789 -199 1528 -289 2385 -289 689
0 1314 57 2000 184 504 93 1118 255 1459 385 776 297 1391 795 1671 1353 327
654 147 1300 -484 1733 -85 58 -88 62 -82 92 61 294 44 557 -56 865 -100 309
-308 628 -549 839 -497 438 -1125 555 -1778 330 -64 -21 -123 -41 -131 -44
-11 -4 -21 13 -39 63 -33 96 -99 235 -165 347 -352 597 -983 980 -1766 1070
-74 9 -151 16 -170 16 -34 1 -36 2 -100 123 -475 893 -1367 1517 -2375 1661
-196 29 -438 40 -610 29z m954 -1653 c96 -19 216 -67 309 -122 75 -44 227
-196 282 -283 l45 -69 3 212 2 212 541 0 540 0 -3 -62 -3 -63 -90 -6 c-228
-17 -362 -117 -416 -309 -10 -35 -14 -410 -19 -1635 -6 -1564 -7 -1592 -27
-1685 -28 -127 -57 -210 -104 -299 -21 -41 -37 -76 -36 -78 2 -1 46 29 98 68
607 456 1041 1121 1204 1844 41 181 33 167 101 188 195 61 431 81 623 53 510
-76 888 -416 1011 -911 12 -49 24 -96 26 -102 2 -8 39 16 91 58 462 371 1011
423 1438 136 85 -57 216 -187 276 -274 95 -138 164 -316 190 -493 12 -83 8
-348 -5 -381 -6 -13 8 -25 58 -53 156 -87 323 -234 406 -356 53 -78 113 -205
136 -290 14 -50 18 -100 18 -220 -1 -134 -4 -168 -26 -250 -132 -486 -552
-941 -1169 -1264 -896 -469 -2230 -650 -3579 -486 -636 78 -1278 237 -1828
452 l-154 60 -146 -21 c-267 -38 -374 -45 -657 -45 -285 -1 -397 8 -620 45
-525 88 -969 295 -1264 590 -358 358 -419 778 -151 1049 152 154 390 245 715
272 l140 12 143 -52 c243 -89 518 -152 787 -182 139 -15 515 -13 663 4 123 13
169 26 97 26 -60 0 -241 29 -345 55 -449 113 -704 364 -744 733 l-7 62 320 0
321 0 4 -22 c22 -113 32 -148 63 -210 42 -84 139 -185 225 -236 197 -116 466
-129 711 -34 209 81 360 261 401 477 25 137 37 397 34 749 l-3 338 -50 -73
c-64 -94 -175 -211 -245 -259 -151 -102 -281 -139 -515 -147 -180 -6 -290 5
-423 43 -504 144 -832 623 -913 1333 -17 154 -7 523 20 676 68 400 200 690
414 912 233 241 525 352 884 337 62 -3 153 -14 202 -24z"/>
<path d="M4831 10925 c-353 -99 -571 -556 -611 -1283 -24 -443 44 -809 199
-1077 62 -108 202 -249 291 -293 102 -50 178 -65 300 -59 174 8 297 59 418
171 161 151 264 387 317 726 22 141 31 552 16 746 -48 613 -217 937 -548 1051
-65 22 -99 27 -203 30 -89 2 -140 -1 -179 -12z"/>
<path d="M12428 8076 c-135 -37 -217 -153 -206 -293 7 -99 65 -185 153 -228
62 -30 169 -32 233 -5 58 25 123 89 148 147 25 57 24 167 -2 224 -56 122 -200
191 -326 155z m183 -90 c94 -62 123 -171 74 -271 -90 -185 -350 -149 -396 55
-19 85 38 190 126 232 56 26 142 19 196 -16z"/>
<path d="M12390 7810 l0 -140 30 0 30 0 0 60 c0 52 2 60 19 60 20 0 57 -38 88
-90 14 -24 24 -30 50 -30 18 0 33 4 33 8 0 5 -18 34 -40 65 -22 32 -35 57 -30
57 23 0 50 41 50 75 0 61 -25 75 -135 75 l-95 0 0 -140z m165 60 c0 -23 -4
-25 -52 -28 l-53 -3 0 31 0 31 53 -3 c48 -3 52 -5 52 -28z"/>
<path d="M4382 2008 l3 -883 22 -41 c45 -85 147 -139 245 -132 l43 3 3 51 3
51 -53 6 c-56 7 -89 26 -122 71 -21 27 -21 37 -24 892 l-2 864 -60 0 -60 0 2
-882z"/>
<path d="M6730 1925 l0 -965 61 0 61 0 -4 134 -3 133 38 -58 c101 -155 256
-239 442 -239 286 1 505 181 587 485 31 115 31 364 -1 480 -83 309 -281 475
-565 475 -167 0 -268 -36 -375 -136 -34 -31 -75 -78 -93 -105 -17 -27 -32 -49
-32 -49 -1 0 0 182 2 405 l2 405 -60 0 -60 0 0 -965z m691 325 c181 -34 325
-191 373 -407 20 -91 21 -284 1 -378 -22 -102 -75 -206 -141 -275 -98 -103
-195 -144 -334 -143 -235 2 -404 167 -457 447 -19 99 -13 291 11 381 74 272
293 422 547 375z"/>
<path d="M3151 2354 c-194 -52 -340 -211 -403 -440 -31 -114 -31 -363 0 -477
49 -177 164 -333 299 -405 165 -87 381 -94 533 -17 65 33 153 114 187 173 14
24 26 42 27 40 1 -2 -1 -88 -5 -193 -7 -208 -17 -253 -80 -348 -124 -187 -451
-243 -737 -125 -40 17 -74 29 -76 27 -1 -2 -15 -26 -30 -52 l-27 -48 53 -23
c376 -166 799 -77 945 199 71 135 67 88 71 923 l3 752 -61 0 -60 0 0 -107 0
-106 -39 54 c-63 86 -151 144 -268 174 -73 19 -259 19 -332 -1z m347 -125
c206 -70 301 -267 289 -599 -10 -279 -88 -434 -257 -514 -62 -30 -71 -31 -190
-31 -124 0 -126 0 -202 37 -127 60 -203 150 -255 301 -22 60 -26 96 -31 219
-5 166 9 257 58 365 54 118 175 216 300 243 69 14 216 4 288 -21z"/>
<path d="M5452 2350 c-120 -32 -226 -93 -317 -185 -89 -89 -135 -159 -170
-262 -67 -193 -54 -396 37 -583 58 -117 197 -258 309 -313 201 -98 429 -103
621 -14 261 122 418 372 418 668 0 330 -223 616 -541 693 -92 22 -263 20 -357
-4z m303 -105 c216 -45 387 -204 451 -420 22 -73 25 -236 5 -315 -21 -86 -85
-209 -141 -272 -204 -228 -568 -257 -800 -63 -142 119 -220 290 -220 483 0
174 55 310 174 428 143 142 335 200 531 159z"/>
<path d="M10160 2356 c-120 -34 -213 -107 -259 -205 -22 -47 -26 -70 -26 -146
0 -78 4 -97 28 -147 50 -103 149 -168 422 -277 145 -58 228 -109 262 -160 81
-120 35 -270 -103 -339 -133 -67 -354 -40 -508 63 -30 20 -60 42 -66 50 -19
22 -32 17 -69 -26 -33 -39 -33 -40 -15 -61 38 -42 163 -115 245 -142 101 -34
273 -46 360 -26 89 20 172 65 223 120 60 64 88 127 94 212 14 193 -85 305
-369 418 -242 96 -321 145 -361 223 -44 86 -19 209 54 272 126 107 401 93 546
-30 18 -15 34 -26 35 -24 2 2 18 23 36 47 l34 43 -23 24 c-33 35 -148 92 -221
110 -77 18 -255 18 -319 1z"/>
<path d="M8313 1808 c3 -443 6 -541 19 -583 63 -206 191 -295 423 -295 179 0
310 54 436 180 42 41 90 100 107 130 l32 55 0 -167 0 -168 60 0 60 0 0 690 0
690 -59 0 -59 0 -4 -392 c-5 -429 -7 -444 -68 -576 -105 -226 -338 -358 -565
-322 -146 23 -225 104 -255 260 -6 31 -10 255 -10 541 l0 489 -61 0 -60 0 4
-532z"/>
</g>
</svg>
